# xmcd
#
# Track frame offsets:
#	150
#	14858
#	26221
#	37449
#	47203
#	62483
#	71925
#	88589
#	98269
#	108592
#	121849
#	136729
#	146950
#	161946
#	173390
#	188642
#
# Disc length: 2746 seconds
#
# Revision: 1
# Processed by: cddbd v1.5.2PL0 Copyright (c) Steve Scherf et al.
# Submitted via: audiograbber 1.83.01
#
DISCID=e80ab810
DTITLE=Jeanie C Riley - Harper Valley and Rock Island Line
DYEAR=2000
DGENRE=Country
TTITLE0=Harper Valley PTA
TTITLE1=Widow Jones
TTITLE2=No Brass Band
TTITLE3=Mr Harper
TTITLE4=Run Jeanie Run
TTITLE5=Shed Me No Tears
TTITLE6=The Cotton Patch
TTITLE7=Sippin Shirley Thompson
TTITLE8=The Little Town Square
TTITLE9=Ballad Of Louise
TTITLE10=Satan Place
TTITLE11=Little Town Square
TTITLE12=Satan Place
TTITLE13=Box Of Memories
TTITLE14=Yearbooks and Yesterdays
TTITLE15=What Was Her Name
EXTD=
EXTT0=
EXTT1=
EXTT2=
EXTT3=
EXTT4=
EXTT5=
EXTT6=
EXTT7=
EXTT8=
EXTT9=
EXTT10=
EXTT11=
EXTT12=
EXTT13=
EXTT14=
EXTT15=
PLAYORDER=
